<mxfile host="app.diagrams.net" modified="2022-04-21T14:10:48.149Z" agent="5.0 (Macintosh; Intel Mac OS X 10_15_7) AppleWebKit/537.36 (KHTML, like Gecko) Chrome/100.0.4896.127 Safari/537.36" etag="LwuCXVoPW7QIMKU1hdps" version="17.4.6" type="github">
  <diagram id="C5RBs43oDa-KdzZeNtuy" name="Page-1">
    <mxGraphModel dx="1437" dy="807" grid="1" gridSize="10" guides="1" tooltips="1" connect="1" arrows="1" fold="1" page="1" pageScale="1" pageWidth="827" pageHeight="1169" math="0" shadow="0">
      <root>
        <mxCell id="WIyWlLk6GJQsqaUBKTNV-0" />
        <mxCell id="WIyWlLk6GJQsqaUBKTNV-1" parent="WIyWlLk6GJQsqaUBKTNV-0" />
        <mxCell id="gqZH3z0eI0wR0jxWh7yX-7" value="" style="edgeStyle=orthogonalEdgeStyle;rounded=0;orthogonalLoop=1;jettySize=auto;html=1;" edge="1" parent="WIyWlLk6GJQsqaUBKTNV-1" source="gqZH3z0eI0wR0jxWh7yX-3" target="gqZH3z0eI0wR0jxWh7yX-6">
          <mxGeometry relative="1" as="geometry" />
        </mxCell>
        <mxCell id="gqZH3z0eI0wR0jxWh7yX-3" value="Issue materials and order to shop floor" style="rounded=1;whiteSpace=wrap;html=1;fontSize=12;glass=0;strokeWidth=1;shadow=0;" vertex="1" parent="WIyWlLk6GJQsqaUBKTNV-1">
          <mxGeometry x="150" y="180" width="120" height="40" as="geometry" />
        </mxCell>
        <mxCell id="gqZH3z0eI0wR0jxWh7yX-9" style="edgeStyle=orthogonalEdgeStyle;rounded=0;orthogonalLoop=1;jettySize=auto;html=1;entryX=0.5;entryY=0;entryDx=0;entryDy=0;" edge="1" parent="WIyWlLk6GJQsqaUBKTNV-1" source="gqZH3z0eI0wR0jxWh7yX-6" target="gqZH3z0eI0wR0jxWh7yX-8">
          <mxGeometry relative="1" as="geometry" />
        </mxCell>
        <mxCell id="gqZH3z0eI0wR0jxWh7yX-6" value="CAM programming" style="rounded=1;whiteSpace=wrap;html=1;fontSize=12;glass=0;strokeWidth=1;shadow=0;" vertex="1" parent="WIyWlLk6GJQsqaUBKTNV-1">
          <mxGeometry x="150" y="260" width="120" height="40" as="geometry" />
        </mxCell>
        <mxCell id="gqZH3z0eI0wR0jxWh7yX-11" style="edgeStyle=orthogonalEdgeStyle;rounded=0;orthogonalLoop=1;jettySize=auto;html=1;entryX=0.5;entryY=0;entryDx=0;entryDy=0;" edge="1" parent="WIyWlLk6GJQsqaUBKTNV-1" source="gqZH3z0eI0wR0jxWh7yX-8" target="gqZH3z0eI0wR0jxWh7yX-10">
          <mxGeometry relative="1" as="geometry" />
        </mxCell>
        <mxCell id="gqZH3z0eI0wR0jxWh7yX-8" value="Machine" style="rounded=1;whiteSpace=wrap;html=1;fontSize=12;glass=0;strokeWidth=1;shadow=0;" vertex="1" parent="WIyWlLk6GJQsqaUBKTNV-1">
          <mxGeometry x="150" y="340" width="120" height="40" as="geometry" />
        </mxCell>
        <mxCell id="gqZH3z0eI0wR0jxWh7yX-12" style="edgeStyle=orthogonalEdgeStyle;rounded=0;orthogonalLoop=1;jettySize=auto;html=1;entryX=0.5;entryY=0;entryDx=0;entryDy=0;" edge="1" parent="WIyWlLk6GJQsqaUBKTNV-1" source="gqZH3z0eI0wR0jxWh7yX-10" target="gqZH3z0eI0wR0jxWh7yX-13">
          <mxGeometry relative="1" as="geometry">
            <mxPoint x="230" y="480" as="targetPoint" />
          </mxGeometry>
        </mxCell>
        <mxCell id="gqZH3z0eI0wR0jxWh7yX-10" value="Inspect" style="rounded=1;whiteSpace=wrap;html=1;fontSize=12;glass=0;strokeWidth=1;shadow=0;" vertex="1" parent="WIyWlLk6GJQsqaUBKTNV-1">
          <mxGeometry x="150" y="420" width="120" height="40" as="geometry" />
        </mxCell>
        <mxCell id="gqZH3z0eI0wR0jxWh7yX-13" value="Ship hardware" style="rounded=1;whiteSpace=wrap;html=1;fontSize=12;glass=0;strokeWidth=1;shadow=0;" vertex="1" parent="WIyWlLk6GJQsqaUBKTNV-1">
          <mxGeometry x="150" y="500" width="120" height="40" as="geometry" />
        </mxCell>
        <mxCell id="gqZH3z0eI0wR0jxWh7yX-14" style="edgeStyle=orthogonalEdgeStyle;rounded=0;orthogonalLoop=1;jettySize=auto;html=1;entryX=0.5;entryY=0;entryDx=0;entryDy=0;" edge="1" parent="WIyWlLk6GJQsqaUBKTNV-1" source="gqZH3z0eI0wR0jxWh7yX-15" target="gqZH3z0eI0wR0jxWh7yX-31">
          <mxGeometry relative="1" as="geometry">
            <mxPoint x="380" y="170" as="targetPoint" />
          </mxGeometry>
        </mxCell>
        <mxCell id="gqZH3z0eI0wR0jxWh7yX-15" value="Receive Purchase Request" style="rounded=1;whiteSpace=wrap;html=1;fontSize=12;glass=0;strokeWidth=1;shadow=0;" vertex="1" parent="WIyWlLk6GJQsqaUBKTNV-1">
          <mxGeometry x="320" y="80" width="120" height="40" as="geometry" />
        </mxCell>
        <mxCell id="gqZH3z0eI0wR0jxWh7yX-16" value="" style="edgeStyle=orthogonalEdgeStyle;rounded=0;orthogonalLoop=1;jettySize=auto;html=1;" edge="1" parent="WIyWlLk6GJQsqaUBKTNV-1" source="gqZH3z0eI0wR0jxWh7yX-17" target="gqZH3z0eI0wR0jxWh7yX-19">
          <mxGeometry relative="1" as="geometry" />
        </mxCell>
        <mxCell id="gqZH3z0eI0wR0jxWh7yX-17" value="Issue materials and order to shop floor" style="rounded=1;whiteSpace=wrap;html=1;fontSize=12;glass=0;strokeWidth=1;shadow=0;" vertex="1" parent="WIyWlLk6GJQsqaUBKTNV-1">
          <mxGeometry x="440" y="230" width="120" height="40" as="geometry" />
        </mxCell>
        <mxCell id="gqZH3z0eI0wR0jxWh7yX-18" style="edgeStyle=orthogonalEdgeStyle;rounded=0;orthogonalLoop=1;jettySize=auto;html=1;entryX=0.5;entryY=0;entryDx=0;entryDy=0;" edge="1" parent="WIyWlLk6GJQsqaUBKTNV-1" source="gqZH3z0eI0wR0jxWh7yX-19" target="gqZH3z0eI0wR0jxWh7yX-21">
          <mxGeometry relative="1" as="geometry" />
        </mxCell>
        <mxCell id="gqZH3z0eI0wR0jxWh7yX-38" value="" style="edgeStyle=orthogonalEdgeStyle;rounded=0;orthogonalLoop=1;jettySize=auto;html=1;fontSize=12;" edge="1" parent="WIyWlLk6GJQsqaUBKTNV-1" source="gqZH3z0eI0wR0jxWh7yX-19" target="gqZH3z0eI0wR0jxWh7yX-37">
          <mxGeometry relative="1" as="geometry" />
        </mxCell>
        <mxCell id="gqZH3z0eI0wR0jxWh7yX-19" value="CAM programming" style="rounded=1;whiteSpace=wrap;html=1;fontSize=12;glass=0;strokeWidth=1;shadow=0;" vertex="1" parent="WIyWlLk6GJQsqaUBKTNV-1">
          <mxGeometry x="440" y="300" width="120" height="40" as="geometry" />
        </mxCell>
        <mxCell id="gqZH3z0eI0wR0jxWh7yX-20" style="edgeStyle=orthogonalEdgeStyle;rounded=0;orthogonalLoop=1;jettySize=auto;html=1;entryX=0.5;entryY=0;entryDx=0;entryDy=0;" edge="1" parent="WIyWlLk6GJQsqaUBKTNV-1" source="gqZH3z0eI0wR0jxWh7yX-21" target="gqZH3z0eI0wR0jxWh7yX-23">
          <mxGeometry relative="1" as="geometry" />
        </mxCell>
        <mxCell id="gqZH3z0eI0wR0jxWh7yX-21" value="Machine" style="rounded=1;whiteSpace=wrap;html=1;fontSize=12;glass=0;strokeWidth=1;shadow=0;" vertex="1" parent="WIyWlLk6GJQsqaUBKTNV-1">
          <mxGeometry x="440" y="370" width="120" height="40" as="geometry" />
        </mxCell>
        <mxCell id="gqZH3z0eI0wR0jxWh7yX-22" style="edgeStyle=orthogonalEdgeStyle;rounded=0;orthogonalLoop=1;jettySize=auto;html=1;entryX=0.5;entryY=0;entryDx=0;entryDy=0;" edge="1" parent="WIyWlLk6GJQsqaUBKTNV-1" source="gqZH3z0eI0wR0jxWh7yX-23" target="gqZH3z0eI0wR0jxWh7yX-42">
          <mxGeometry relative="1" as="geometry">
            <mxPoint x="500" y="510" as="targetPoint" />
          </mxGeometry>
        </mxCell>
        <mxCell id="gqZH3z0eI0wR0jxWh7yX-40" style="edgeStyle=orthogonalEdgeStyle;rounded=0;orthogonalLoop=1;jettySize=auto;html=1;entryX=0;entryY=0.5;entryDx=0;entryDy=0;fontSize=12;" edge="1" parent="WIyWlLk6GJQsqaUBKTNV-1" source="gqZH3z0eI0wR0jxWh7yX-23" target="gqZH3z0eI0wR0jxWh7yX-39">
          <mxGeometry relative="1" as="geometry" />
        </mxCell>
        <mxCell id="gqZH3z0eI0wR0jxWh7yX-23" value="First Article Inspection" style="rounded=1;whiteSpace=wrap;html=1;fontSize=12;glass=0;strokeWidth=1;shadow=0;" vertex="1" parent="WIyWlLk6GJQsqaUBKTNV-1">
          <mxGeometry x="440" y="440" width="120" height="40" as="geometry" />
        </mxCell>
        <mxCell id="gqZH3z0eI0wR0jxWh7yX-27" value="&lt;font style=&quot;font-size: 20px&quot;&gt;Prototype Machining&lt;/font&gt;" style="text;html=1;strokeColor=none;fillColor=none;align=center;verticalAlign=middle;whiteSpace=wrap;rounded=0;" vertex="1" parent="WIyWlLk6GJQsqaUBKTNV-1">
          <mxGeometry x="40" y="90" width="100" height="30" as="geometry" />
        </mxCell>
        <mxCell id="gqZH3z0eI0wR0jxWh7yX-28" value="&lt;font style=&quot;font-size: 20px&quot;&gt;Production Machining&lt;/font&gt;" style="text;html=1;strokeColor=none;fillColor=none;align=center;verticalAlign=middle;whiteSpace=wrap;rounded=0;" vertex="1" parent="WIyWlLk6GJQsqaUBKTNV-1">
          <mxGeometry x="580" y="80" width="100" height="30" as="geometry" />
        </mxCell>
        <mxCell id="gqZH3z0eI0wR0jxWh7yX-32" style="edgeStyle=orthogonalEdgeStyle;rounded=0;orthogonalLoop=1;jettySize=auto;html=1;entryX=0.5;entryY=0;entryDx=0;entryDy=0;fontSize=12;" edge="1" parent="WIyWlLk6GJQsqaUBKTNV-1" source="gqZH3z0eI0wR0jxWh7yX-31" target="gqZH3z0eI0wR0jxWh7yX-17">
          <mxGeometry relative="1" as="geometry" />
        </mxCell>
        <mxCell id="gqZH3z0eI0wR0jxWh7yX-36" value="Yes" style="edgeLabel;html=1;align=center;verticalAlign=middle;resizable=0;points=[];fontSize=12;" vertex="1" connectable="0" parent="gqZH3z0eI0wR0jxWh7yX-32">
          <mxGeometry x="-0.8422" y="3" relative="1" as="geometry">
            <mxPoint x="18" y="3" as="offset" />
          </mxGeometry>
        </mxCell>
        <mxCell id="gqZH3z0eI0wR0jxWh7yX-33" style="edgeStyle=orthogonalEdgeStyle;rounded=0;orthogonalLoop=1;jettySize=auto;html=1;fontSize=12;" edge="1" parent="WIyWlLk6GJQsqaUBKTNV-1" source="gqZH3z0eI0wR0jxWh7yX-31" target="gqZH3z0eI0wR0jxWh7yX-3">
          <mxGeometry relative="1" as="geometry" />
        </mxCell>
        <mxCell id="gqZH3z0eI0wR0jxWh7yX-34" value="No" style="edgeLabel;html=1;align=center;verticalAlign=middle;resizable=0;points=[];fontSize=12;" vertex="1" connectable="0" parent="gqZH3z0eI0wR0jxWh7yX-33">
          <mxGeometry x="0.2009" y="1" relative="1" as="geometry">
            <mxPoint x="16" y="-1" as="offset" />
          </mxGeometry>
        </mxCell>
        <mxCell id="gqZH3z0eI0wR0jxWh7yX-31" value="Production criteria met?" style="rhombus;whiteSpace=wrap;html=1;fontSize=12;spacingLeft=13;spacingRight=13;" vertex="1" parent="WIyWlLk6GJQsqaUBKTNV-1">
          <mxGeometry x="330" y="150" width="100" height="100" as="geometry" />
        </mxCell>
        <mxCell id="gqZH3z0eI0wR0jxWh7yX-37" value="Document setup procedure" style="whiteSpace=wrap;html=1;rounded=1;glass=0;strokeWidth=1;shadow=0;" vertex="1" parent="WIyWlLk6GJQsqaUBKTNV-1">
          <mxGeometry x="590" y="300" width="140" height="40" as="geometry" />
        </mxCell>
        <mxCell id="gqZH3z0eI0wR0jxWh7yX-39" value="Document inspection procedure" style="whiteSpace=wrap;html=1;rounded=1;glass=0;strokeWidth=1;shadow=0;" vertex="1" parent="WIyWlLk6GJQsqaUBKTNV-1">
          <mxGeometry x="590" y="440" width="140" height="40" as="geometry" />
        </mxCell>
        <mxCell id="gqZH3z0eI0wR0jxWh7yX-43" value="Yes" style="edgeStyle=orthogonalEdgeStyle;rounded=0;orthogonalLoop=1;jettySize=auto;html=1;fontSize=12;entryX=0.5;entryY=0;entryDx=0;entryDy=0;" edge="1" parent="WIyWlLk6GJQsqaUBKTNV-1" source="gqZH3z0eI0wR0jxWh7yX-42" target="gqZH3z0eI0wR0jxWh7yX-44">
          <mxGeometry x="-0.2" relative="1" as="geometry">
            <mxPoint x="500" y="650" as="targetPoint" />
            <mxPoint as="offset" />
          </mxGeometry>
        </mxCell>
        <mxCell id="gqZH3z0eI0wR0jxWh7yX-46" style="edgeStyle=orthogonalEdgeStyle;rounded=0;orthogonalLoop=1;jettySize=auto;html=1;fontSize=12;entryX=1;entryY=0.5;entryDx=0;entryDy=0;" edge="1" parent="WIyWlLk6GJQsqaUBKTNV-1" source="gqZH3z0eI0wR0jxWh7yX-42" target="gqZH3z0eI0wR0jxWh7yX-17">
          <mxGeometry relative="1" as="geometry">
            <mxPoint x="770" y="340" as="targetPoint" />
            <Array as="points">
              <mxPoint x="780" y="560" />
              <mxPoint x="780" y="250" />
            </Array>
          </mxGeometry>
        </mxCell>
        <mxCell id="gqZH3z0eI0wR0jxWh7yX-47" value="No" style="edgeLabel;html=1;align=center;verticalAlign=middle;resizable=0;points=[];fontSize=12;" vertex="1" connectable="0" parent="gqZH3z0eI0wR0jxWh7yX-46">
          <mxGeometry x="-0.8605" y="-2" relative="1" as="geometry">
            <mxPoint x="-23" y="-2" as="offset" />
          </mxGeometry>
        </mxCell>
        <mxCell id="gqZH3z0eI0wR0jxWh7yX-42" value="Inspection passed?" style="rhombus;whiteSpace=wrap;html=1;fontSize=12;spacingLeft=13;spacingRight=13;" vertex="1" parent="WIyWlLk6GJQsqaUBKTNV-1">
          <mxGeometry x="450" y="510" width="100" height="100" as="geometry" />
        </mxCell>
        <mxCell id="gqZH3z0eI0wR0jxWh7yX-44" value="Ship hardware" style="rounded=1;whiteSpace=wrap;html=1;fontSize=12;glass=0;strokeWidth=1;shadow=0;" vertex="1" parent="WIyWlLk6GJQsqaUBKTNV-1">
          <mxGeometry x="440" y="660" width="120" height="40" as="geometry" />
        </mxCell>
      </root>
    </mxGraphModel>
  </diagram>
</mxfile>
